<svg width="32" height="32" viewBox="0 0 32 32" fill="none" xmlns="http://www.w3.org/2000/svg">
<path d="M0.5 16C0.5 7.43959 7.43959 0.5 16 0.5C24.5604 0.5 31.5 7.43959 31.5 16C31.5 24.5604 24.5604 31.5 16 31.5C7.43959 31.5 0.5 24.5604 0.5 16Z" fill="white" stroke="#DFE4EA"/>
<path d="M22.6355 12.3C22.7246 12.1961 22.6084 12.0603 22.4766 12.109C22.1823 12.2175 21.9134 12.2891 21.5156 12.3333C22.0048 12.0609 22.2324 11.6716 22.4174 11.1947C22.462 11.0797 22.3274 10.9753 22.2115 11.0302C21.7406 11.2535 21.2326 11.4191 20.6983 11.517C20.1702 10.9937 19.4175 10.6666 18.5848 10.6666C16.9859 10.6666 15.6893 11.8725 15.6893 13.3594C15.6893 13.5705 15.7152 13.7761 15.764 13.973C13.4655 13.8659 11.416 12.8827 9.99215 11.375C9.89456 11.2717 9.71747 11.2854 9.6567 11.4114C9.4946 11.7477 9.40422 12.1207 9.40422 12.5134C9.40422 13.4475 9.91524 14.2716 10.692 14.7545C10.3437 14.744 10.0107 14.6762 9.7037 14.561C9.55424 14.5049 9.38292 14.6035 9.403 14.7542C9.55716 15.9114 10.4941 16.8662 11.7035 17.0918C11.4606 17.1536 11.2048 17.1864 10.9402 17.1864C10.876 17.1864 10.8124 17.1844 10.7494 17.1805C10.589 17.1706 10.4587 17.314 10.5274 17.4513C10.9811 18.3568 11.9607 18.9889 13.1007 19.0086C12.1098 19.731 10.8614 20.1614 9.50478 20.1614C9.3375 20.1614 9.26574 20.3764 9.41414 20.4494C10.5603 21.0128 11.8655 21.3333 13.2524 21.3333C18.5784 21.3333 21.4904 17.2302 21.4904 13.6717C21.4904 13.5552 21.4874 13.4387 21.4822 13.3233C21.9144 13.0329 22.303 12.6876 22.6355 12.3Z" fill="#111928"/>
</svg>
